<svg xmlns="http://www.w3.org/2000/svg" width="340" height="73" viewBox="0 0 340 73"><defs><style>.a{fill:#233a5a}.b{fill:#9c9c9c}.c{fill:#c57603}.d{fill:#020202}.e{fill:#263d5c}.f{fill:#273d5d}.g{fill:#273e5d}.h{fill:#c67907}.i{fill:#c67908}.j{fill:#283e5d}.k{fill:#2b4160}.l{fill:#c67a0a}</style></defs><title>logo</title><path class="a" d="M27.81 67.92a60.47 60.47 0 0 1-6.17-13.15c.41 5.72 1.28 11.38 2 17.06A9.8 9.8 0 0 1 22.3 69a80.28 80.28 0 0 1-2.83-10.89c-.54-2.61-1-5.23-1.36-7.86-.26-1.81-.44-3.65-.63-5.47a79 79 0 0 1-.25-8.14 13.25 13.25 0 0 1 .24-2.08 1.67 1.67 0 0 0-.07-.88 32.74 32.74 0 0 1-1.75-7.9c-.12-1.15-.07-2.29-.12-3.43a.71.71 0 0 1 .31-.71c.67-.45 1.28-1 2-1.43a1.46 1.46 0 0 0 .69-1.24 19.24 19.24 0 0 1 2.82-8.61 9.83 9.83 0 0 1 1.3-1.54 35.34 35.34 0 0 0-2.14 9.55 25.5 25.5 0 0 0 1.15 9.81 35.32 35.32 0 0 1 .84-4.24c.38-1.3.87-1.55 2.16-1.15a4.71 4.71 0 0 1 1.47.77 1.25 1.25 0 0 1 .32 1.58 25.33 25.33 0 0 0-1.37 5.07 4.47 4.47 0 0 0-.06.9A35.82 35.82 0 0 0 32.21 23a43.09 43.09 0 0 0 5.3-9.45 3 3 0 0 1 0 1.87 31.22 31.22 0 0 1-2.59 7.78c-.43.95-.8 1.71 0 2.89 1.1 1.56 1.17 1.15-.32 2.73a39.69 39.69 0 0 1-7.46 6.41c-.39.25-.34.49-.24.82a65.62 65.62 0 0 0 5.26 12.32 30.6 30.6 0 0 0 3.95 6c.28.31.05.38-.18.55a20.49 20.49 0 0 1-6.16 2.77 18.13 18.13 0 0 1-3.17.7c-.44 0-.46.29-.47.62a20.13 20.13 0 0 0 .65 4.89c.28 1.31.68 2.65 1.03 4.02z"/><path class="b" d="M0 28.62c-.06-2.36 1.69-4.11 4.76-3.62a4.41 4.41 0 0 1 2.8 1.47 2.44 2.44 0 0 1 .55 2.66A2.3 2.3 0 0 1 6 30.59a2.73 2.73 0 0 1-2.7-1.22A1 1 0 0 1 3.49 28a.94.94 0 0 1 1.35.31c.18.24.37.48.56.71a1 1 0 0 0 1.44.17 1 1 0 0 0 .39-1.34A3.25 3.25 0 0 0 4.2 26a2.43 2.43 0 0 0-2.51 1.6 3.17 3.17 0 0 0 2.21 4 5.44 5.44 0 0 0 3.52 0c.34-.11.52-.11.62.32a33.76 33.76 0 0 0 5 11.2c.46.7.47.72-.3 1.1a3.65 3.65 0 0 1-4.88-1.07A53.31 53.31 0 0 1 .63 31.34a11.72 11.72 0 0 1-.55-1.74 5.26 5.26 0 0 1-.08-.98z"/><path class="c" d="M8 69.23L3.4 67v-.19l5.35-.73L1 60.38l.1-.18 8.92 2-2.56-5 4.25 1.66L8.6 50.7a4.82 4.82 0 0 1 1.4 1.55c1.5 2 3 4 4.45 6 .34.44.34.69-.07 1.09a12.88 12.88 0 0 0-3.53 7.34 10.62 10.62 0 0 0 0 4.49c.13.47-.32.41-.53.45-1.09.22-2.19.39-3.28.58l-4.91.8c-.07 0-.14 0-.3-.19z"/><path class="d" d="M31 5.23l2 7.11-2.55-1c-.8-.31-1.61-.61-2.4-.94-.3-.13-.43-.12-.57.22-.22.54-.5 1.3-1 1.37s-.65-.79-1-1.23a16.45 16.45 0 0 0-3.85-3.87c-.44-.3-.33-.45 0-.65a2.82 2.82 0 0 1 .74-.4c.92-.17.83-.67.6-1.37-.47-1.46-.86-2.94-1.32-4.51l6.83 2.61 1.52.58a1 1 0 0 1 .65.56v.21a5.43 5.43 0 0 0-.53-.17 3.31 3.31 0 0 0-2.36.25c-.73.41-1.25 2.11-.6 2.53.27.18.53.39.81.22s.18-.53 0-.8a.81.81 0 0 1 .38-1.22 1.66 1.66 0 0 1 1.22-.14 6.53 6.53 0 0 1 1.43.66z"/><path class="c" d="M43.2 56l-4.94 5.31 4.81-.31.09.16-3.86 3.2 8.7.74v.13l-8 2.82 4.81 3.1-.05.19-7.66-.43c1.24-4 .95-7.71-2.18-10.86l8.1-4.27zM30.6 3.92v-.21A4.16 4.16 0 0 1 33 6.27a5.31 5.31 0 0 0 1 1.82 1.36 1.36 0 0 0 1.14.39c.26 0 .45-.11.45-.41A2.22 2.22 0 0 1 36 6.9c1-1.51.23-2.24-.7-2.95-.19-.13-.76-.13-.46-.55s.67-.62 1.1-.12a6.66 6.66 0 0 0 .84.84A1.81 1.81 0 0 0 36.16 3c-.26-.26-.23-.43.05-.61l.11-.08c1.14-.65.83-.93 1.8.23a4.41 4.41 0 0 1 .15 5.64 1.84 1.84 0 0 1-1.65.82.94.94 0 0 0-.54.11 2.52 2.52 0 0 1-3.63-1.56 7.45 7.45 0 0 0-1.09-2.16.49.49 0 0 0-.34-.2 5.74 5.74 0 0 0-.42-1.27zm6.34.62v-.26h-.1c.01 0 0 .23.17.23a.36.36 0 0 0 .07.38c-.08-.11.11-.26-.14-.35zm4.68 29.34c-.54.19-.71-.3-.71-.89s-.1-1.39-.16-2.09c0-.31 0-.55.43-.57.88 0 1.76-.09 2.64-.16.39 0 .45.14.46.48 0 .86.1 1.72.21 2.57 0 .39-.11.48-.41.46a20 20 0 0 0-2.46.2zM10.69 12.4c-.34 0-.33-.12-.39-.28a17.66 17.66 0 0 0-.73-1.87c-.18-.39 0-.47.29-.58s.86-.33 1.29-.49c.95-.36 1-.37 1.27.56.18.59.79 1.23.49 1.72s-1.05.48-1.6.7z"/><path class="a" d="M43.27 37.57c.09.39-.12.43-.28.49-.55.21-1.12.4-1.67.63-.35.16-.57.1-.7-.27-.2-.56-.37-1.14-.62-1.67-.17-.36-.06-.51.24-.63.58-.22 1.17-.42 1.74-.66.22-.09.43-.15.53.11.29.7.54 1.43.76 2z"/><path class="c" d="M35.38 36.41c.36.27.76.56 1.14.87.72.59.71.59.12 1.33-1 1.25-1 1.25-2.23.23-.71-.59-.71-.59-.08-1.33l.75-.93c.07-.09.12-.2.3-.17z"/><path class="e" d="M9.9 17.1c-.06.07-.09.13-.14.16s-.16.08-.24.13c-1.52.84-1.52.84-2.28-.71-.11-.24-.12-.42.15-.55a3.45 3.45 0 0 1 .61-.3c.33-.1.67-.63.95-.32a8.36 8.36 0 0 1 .95 1.59zM37.41 44c-.2 0-.24-.14-.31-.24-.94-1.37-.87-1.57.62-2.31.3-.14.51-.2.62.19a.69.69 0 0 0 0 .13c.82 1.46.82 1.46-.74 2.14a1.44 1.44 0 0 1-.19.09zm233.04 4.3c.31-.43.54-.78.81-1.1a5.08 5.08 0 0 1 4.74-1.92 4.18 4.18 0 0 1 3.6 3.7 21.3 21.3 0 0 1 .17 3.57v5.4c0 .46-.06.66-.59.64-1.15 0-1.13 0-1.15-1.13 0-2.62.08-5.24-.08-7.85a3 3 0 0 0-4.28-2.61c-2 .78-2.7 2.46-2.83 4.45s-.07 4.25 0 6.38c0 .57-.11.78-.72.74-1-.05-1 0-1-1 0-2.48.05-5-.06-7.43-.07-1.4-.45-2.6-1.89-3.16a3.77 3.77 0 0 0-4 1.09 4.8 4.8 0 0 0-1.23 2.93 65.62 65.62 0 0 0-.11 6.87c0 .57-.12.77-.73.73-1-.05-1 0-1-1V46.24c0-.52.09-.8.68-.7a2.22 2.22 0 0 0 .63 0c.32 0 .41.1.39.4v1.82a5.27 5.27 0 0 1 4.58-2.49 4.09 4.09 0 0 1 4.07 3.03zm-31.81-.68c3.65-3.45 6.48-3.24 8.69.61.25-.35.48-.7.75-1a5.17 5.17 0 0 1 4.54-2 4.2 4.2 0 0 1 3.81 3.77 19.26 19.26 0 0 1 .17 3.22v5.75c0 .53-.13.73-.66.64a1.75 1.75 0 0 0-.56 0c-.47.08-.54-.14-.53-.55v-7c0-.47-.07-.94-.09-1.4-.11-2.52-2.49-3.31-4.33-2.58-2 .8-2.65 2.46-2.77 4.42-.14 2.15-.1 4.3-.05 6.45 0 .78-.4.68-.86.67s-.89.16-.88-.65c0-2.59.07-5.19 0-7.78-.07-1.43-.46-2.65-1.95-3.19a3.79 3.79 0 0 0-4 1.15 4.85 4.85 0 0 0-1.15 2.85 65.62 65.62 0 0 0-.11 6.87c0 .55-.09.78-.71.75-1-.06-1 0-1-1V46.26c0-.5.05-.75.67-.72 1 0 1 0 1 1z"/><path class="f" d="M188.22 47.9v-6.26c0-1.24 0-1.22 1.24-1.19.41 0 .45.17.45.5v17.11c0 .46-.15.53-.56.53-1.14 0-1.14 0-1.14-1.09v-1.13a6.69 6.69 0 0 1-6 2.46 6.48 6.48 0 0 1-4.46-2.43 6.86 6.86 0 0 1 .81-9.53 6.61 6.61 0 0 1 9.66 1.03zm.11 4.23a5.13 5.13 0 0 0-5.14-5.34 5.26 5.26 0 0 0-.1 10.51 5.1 5.1 0 0 0 5.24-5.17zm-86.57-4.27v-6.67c0-.56.1-.78.72-.74 1 0 1 0 1 .95v16.48c0 .71-.29.74-.82.7s-1 .17-.9-.69a10.57 10.57 0 0 0 0-1.51 6.66 6.66 0 0 1-5.53 2.47A6.5 6.5 0 0 1 91 56a6.87 6.87 0 0 1 1.15-9.24 6.65 6.65 0 0 1 9.61 1.1zm.11 4.24a5.13 5.13 0 0 0-5.18-5.31A5.23 5.23 0 0 0 91.46 52a5.29 5.29 0 0 0 5.2 5.28 5.11 5.11 0 0 0 5.21-5.18zm107.8 6.9c-4.91 0-8.48-2.86-9.39-7.52a9.19 9.19 0 0 1 8.69-11 9.64 9.64 0 0 1 8.03 3.09c.39.43.51.74-.1 1a1.67 1.67 0 0 0-.45.34c-.28.28-.46.23-.71-.07a7.6 7.6 0 0 0-6.23-2.72 7.57 7.57 0 0 0-.15 15.14 7.61 7.61 0 0 0 6.27-2.63c.34-.39.55-.4.94-.09 1 .76 1 .74.12 1.6a9.44 9.44 0 0 1-7.02 2.86z"/><path class="e" d="M169.43 58.58h-1.39a.66.66 0 0 1-.74-.47c-.77-1.65-1.58-3.29-2.34-4.94a.75.75 0 0 0-.79-.51h-6.49a.77.77 0 0 0-.83.55c-.74 1.59-1.52 3.15-2.23 4.75a.86.86 0 0 1-1 .62 9 9 0 0 0-1.16 0 1.05 1.05 0 0 1 .2-.71q3.89-8.19 7.79-16.38c.11-.23.1-.59.49-.6s.4.35.5.57q3.85 8.17 7.68 16.36c.09.18.18.46.31.76zm-8.49-13.95l-3 6.32h6c-1-2.09-1.94-4.13-3-6.32zm-46.63 7.49h-5.37c-.43 0-.56.09-.51.55a5.08 5.08 0 0 0 3.57 4.45 5.43 5.43 0 0 0 5.76-2 1.09 1.09 0 0 1 .13-.17c.2-.22.28-.71.54-.67a3.83 3.83 0 0 1 1.19.57c.3.18 0 .37 0 .53a6.94 6.94 0 0 1-12 0 6.94 6.94 0 0 1 .77-7.81c1.92-2.3 4.42-2.78 7.21-2.07a6.39 6.39 0 0 1 4.51 5.5c.15 1.15.15 1.15-1 1.15zm3.92-1.41a1 1 0 0 0 0-.17 5 5 0 0 0-9.58-.22c-.09.33 0 .4.32.4z"/><path class="f" d="M58.4 59a5.89 5.89 0 0 1-5.22-3.59.32.32 0 0 1 .11-.46c1-.79 1.15-.78 1.84.27a6 6 0 0 0 1.31 1.45 3.2 3.2 0 0 0 4.19-.32 3 3 0 0 0 .19-4 12.73 12.73 0 0 0-2.43-2.32c-.88-.71-1.8-1.37-2.63-2.13a4.24 4.24 0 0 1-.76-5.82 4.7 4.7 0 0 1 6.18-.84 8.46 8.46 0 0 1 1.7 1.57c.22.25.21.39-.06.62-1 .85-1 .86-1.89-.07a3.33 3.33 0 0 0-2.31-1.2 2.34 2.34 0 0 0-2.28 3.52 4.12 4.12 0 0 0 1.19 1.37c1.14.9 2.31 1.77 3.43 2.7a6.55 6.55 0 0 1 2.34 3.34A4.84 4.84 0 0 1 58.4 59z"/><path class="g" d="M226.92 58.86a6.81 6.81 0 1 1 .08-13.62 6.81 6.81 0 1 1-.09 13.62zm5.13-6.71a5.11 5.11 0 1 0-10.22-.06 5.11 5.11 0 1 0 10.22.06zM311.8 52a6.84 6.84 0 1 1 6.78 6.84A6.73 6.73 0 0 1 311.8 52zm11.94.11a5.11 5.11 0 1 0-10.22 0 5.11 5.11 0 1 0 10.22 0z"/><path class="f" d="M124.94 47.64c.37-.14.5-.41.69-.6a5.65 5.65 0 0 1 5-1.75c2.39.33 3.86 2.12 4 4.85s0 5.33.08 8c0 .4-.15.45-.5.46-1.2 0-1.19 0-1.2-1.16 0-2.31 0-4.62-.07-6.94 0-1.44-.39-2.79-1.88-3.4a4 4 0 0 0-4.4.81 4.72 4.72 0 0 0-1.66 3.37c-.16 2.19-.11 4.39-.09 6.59 0 .58-.13.76-.72.72-1-.05-1 0-1-1V46.15c0-.53.14-.66.67-.65 1.06 0 1.06 0 1.06 1.08zm205.27.13c.53-.51.88-.92 1.29-1.26a5.47 5.47 0 0 1 4.5-1.21c2.35.39 3.76 2.11 3.93 4.79s0 5.37.08 8.06c0 .34-.11.43-.44.44-1.26 0-1.25.06-1.26-1.18 0-2.31 0-4.62-.06-6.94 0-1.44-.41-2.78-1.91-3.39a4 4 0 0 0-4.28.74 4.66 4.66 0 0 0-1.72 3.41c-.17 2.19-.12 4.39-.09 6.59 0 .67-.21.86-.82.76h-.07c-.65.11-.88-.09-.86-.8.06-2.13 0-4.26 0-6.38v-5.26c0-.48.1-.71.61-.63a1 1 0 0 0 .35 0c.6-.1.86.1.77.74a12.43 12.43 0 0 0-.02 1.52z"/><path class="h" d="M59.79 33a6.67 6.67 0 0 1-5.85-3.84 7.17 7.17 0 0 1 .32-7.61 8 8 0 0 1 12.19-.95c.17.18.73.36.26.8-.7.67-.79.68-1.31.17A6.27 6.27 0 0 0 58.83 20a5.51 5.51 0 0 0-4.13 4.53 5.75 5.75 0 0 0 3.1 6.4 6.55 6.55 0 0 0 7.61-1.25c.24-.24.39-.54.83-.18.77.63.81.59.09 1.32C64.89 32.28 63 33 59.79 33z"/><path class="e" d="M75 49.62v-3.58c0-.45.14-.54.56-.53 1.16 0 1.14 0 1.16 1.12 0 2.5-.16 5 .13 7.5.23 2 1.85 3.22 4.06 3.17a3.6 3.6 0 0 0 3.74-3.3c.23-2.57.09-5.14.1-7.71 0-.56.1-.83.72-.73a2.73 2.73 0 0 0 .7 0c.25 0 .33.1.32.34-.06 2.68.13 5.37-.11 8.06-.32 3.61-3.06 5.41-6.76 4.86-2.9-.43-4.41-2.3-4.57-5.57C75 52 75 50.81 75 49.62z"/><path class="i" d="M78.73 24.1v-1a.8.8 0 0 1 1.21-.79c.22.1.16.27.16.41v9.55c0 .56-.36.44-.66.42s-.76.21-.72-.43v-1.29a5.43 5.43 0 0 1-5 2 5.19 5.19 0 0 1-3.44-2 5.52 5.52 0 0 1 .6-7.5c2.29-2.04 5.19-1.85 7.85.63zm-8.22 3.39a4.21 4.21 0 0 0 4.14 4.26 4.21 4.21 0 0 0 0-8.41 4.18 4.18 0 0 0-4.14 4.15zm70.81-3.39v-1a.8.8 0 0 1 1.21-.78c.21.1.16.27.16.42v9.54c0 .64-.44.4-.74.42s-.7.13-.65-.43v-1.29a5.44 5.44 0 0 1-5 2 5.17 5.17 0 0 1-3.4-1.95 5.51 5.51 0 0 1 .52-7.5c2.28-2.1 5.19-1.92 7.9.57zm.1 3.47a4.16 4.16 0 1 0-8.32 0 4.2 4.2 0 0 0 4.13 4.2 4.12 4.12 0 0 0 4.19-4.2z"/><path class="j" d="M300.06 58.85a5 5 0 0 1-3-1.26c-.36-.3-.54-.58-.07-.93a.45.45 0 0 0 .09-.1c.35-.5.63-.71 1.2-.13a2.81 2.81 0 0 0 2.92.75 2.16 2.16 0 0 0 1.62-1.77 1.89 1.89 0 0 0-1-2c-.91-.57-1.88-1.07-2.79-1.64a3.51 3.51 0 0 1 3-6.35 6.77 6.77 0 0 1 2.07 1.3c.29.25.3.43 0 .66a1.85 1.85 0 0 0-.39.4c-.25.31-.44.38-.77 0a3.5 3.5 0 0 0-1.75-1 2.06 2.06 0 0 0-2.33 1 1.83 1.83 0 0 0 .64 2.25 10.33 10.33 0 0 0 1.55 1c.53.3 1.07.58 1.57.93a3.53 3.53 0 0 1 1.62 4.24c-.44 1.63-1.97 2.67-4.18 2.65zm-9.62 0a5.08 5.08 0 0 1-3-1.28c-.35-.3-.48-.56-.06-.89a1.61 1.61 0 0 0 .33-.36c.25-.4.45-.35.79 0a3 3 0 0 0 3.16.88 2.12 2.12 0 0 0 1.57-1.72 1.89 1.89 0 0 0-.93-2c-.54-.37-1.13-.67-1.69-1a16.09 16.09 0 0 1-1.49-.92 3.47 3.47 0 0 1-1.12-4.51 3.66 3.66 0 0 1 4.45-1.61 6.55 6.55 0 0 1 2.14 1.34c.27.23.25.4 0 .61a1.18 1.18 0 0 0-.29.3c-.33.48-.62.46-1 .05a3.28 3.28 0 0 0-1.65-.9 2.07 2.07 0 0 0-2.28 1 1.77 1.77 0 0 0 .61 2.24 12 12 0 0 0 1.35.88c.6.37 1.24.67 1.82 1.07a3.51 3.51 0 0 1 1.59 4.19c-.53 1.59-2.06 2.64-4.3 2.63z"/><path class="i" d="M102.13 33a5.37 5.37 0 0 1-5.47-5.47 5.48 5.48 0 1 1 5.47 5.47zm-4.08-5.5a4.1 4.1 0 1 0 8.19.09 4.21 4.21 0 0 0-4.06-4.27 4.16 4.16 0 0 0-4.13 4.2z"/><path class="h" d="M117.44 24.18a5.38 5.38 0 0 1 3.19-2.06 3.76 3.76 0 0 1 4.54 3.54c.22 2.22.06 4.44.11 6.66 0 .64-.44.4-.74.42s-.67.15-.65-.42v-4.56c0-.61 0-1.22-.08-1.82a2.65 2.65 0 0 0-3.93-2.34 3.6 3.6 0 0 0-2.33 3.17 51.17 51.17 0 0 0-.1 5.4c0 .53-.19.62-.65.59s-.75.06-.74-.58v-9.26c0-.66.35-.54.75-.58s.7.07.64.6a9.74 9.74 0 0 0-.01 1.24z"/><path class="e" d="M68.37 52.68v-5c0-.68-.21-.85-.82-.78h-.92c-.51.07-.6-.16-.62-.62 0-.64.15-.83.81-.81 1.53 0 1.54 0 1.54-1.49v-2.74c0-.45.14-.54.56-.54 1.16 0 1.16 0 1.16 1.13v3.16c0 .39.1.53.51.5s1.09 0 1.62 0 .61.24.57.66.16.84-.54.77h-1.55c-.55 0-.61.15-.61.62v10.32c0 .57-.11.77-.72.73-1-.05-1 0-1-1zm73.19.06v5.19c0 .52-.11.74-.65.65a2.09 2.09 0 0 0-.5 0c-.46.07-.58-.12-.58-.57V47.59c0-.47-.08-.69-.61-.63h-1.12c-.53.05-.6-.17-.62-.64 0-.64.16-.82.81-.8 1.53 0 1.53 0 1.53-1.5v-2.73c0-.46.14-.54.56-.54 1.16 0 1.16 0 1.16 1.13v3.16c0 .4.11.53.51.5h1.69c.56 0 .51.33.48.66s.24.81-.45.76-1.13 0-1.7 0-.54.14-.53.55c.03 1.72.02 3.49.02 5.23z"/><path class="h" d="M95.34 19.5a11.11 11.11 0 0 0-1.15-.22c-.72 0-1 .28-1.08 1v.21c0 .59-.2 1.31.07 1.72s1.08.15 1.65.15.43.36.43.65.11.71-.44.63h-.21c-1.51 0-1.51 0-1.51 1.54v6.87c0 .59-.15.74-.74.74s-.69-.17-.68-.71v-7.71c0-.55-.09-.84-.71-.73s-.71 0-.71-.61.22-.74.73-.66.72-.13.69-.68a11.53 11.53 0 0 1 .06-2 1.83 1.83 0 0 1 2-1.72h.36c1.32.12 1.43.25 1.24 1.53z"/><path class="k" d="M307.21 52.05v-5.89c0-.53.13-.73.66-.65a2.66 2.66 0 0 0 .63 0c.34 0 .45.09.45.44v12.2c0 .33-.11.43-.44.44-1.29.06-1.29.07-1.29-1.21zm-24.16 0v-5.89c0-.52.13-.73.66-.65a2.74 2.74 0 0 0 .64 0c.33 0 .44.09.44.43v12.21c0 .33-.1.43-.44.44-1.29.06-1.29.07-1.29-1.21zM171.59 52v-5.89c0-.47.14-.58.6-.58 1.14 0 1.14 0 1.14 1.15v11.29c0 .54-.14.67-.67.65-1.06 0-1.06 0-1.06-1.08z"/><path class="l" d="M82.81 25.44v-6.59c0-.64.32-.57.73-.58s.69 0 .69.56v13.38c0 .68-.4.51-.77.55s-.66-.07-.65-.6c.02-2.24 0-4.48 0-6.72z"/><path class="i" d="M111 23.75a9.07 9.07 0 0 1 1.17-1.16 2.54 2.54 0 0 1 1.72-.51c.35 0 .8.06.92.38s-.28.55-.43.83a.31.31 0 0 1-.42.15 1.94 1.94 0 0 0-2.27 1.1 5.13 5.13 0 0 0-.66 2.76v4.83c0 .58-.21.66-.69.63s-.74.06-.74-.58q.06-4.63 0-9.25c0-.63.32-.57.73-.59s.79 0 .69.62a5 5 0 0 0-.02.79zm17 3.76v-4.62c0-.6.3-.56.69-.54s.73-.13.73.51v9.38c0 .65-.38.49-.73.51s-.71 0-.69-.54c.05-1.57 0-3.13 0-4.7zm-41.23-.03v-4.62c0-.59.31-.53.67-.5s.76-.21.75.46v9.46c0 .68-.44.43-.76.46s-.67.07-.66-.5c.03-1.59 0-3.17 0-4.76z"/><path class="g" d="M306.69 41.57a1.38 1.38 0 0 1 1.37-1.39A1.41 1.41 0 1 1 308 43a1.37 1.37 0 0 1-1.31-1.43zm-134.24-1.39a1.41 1.41 0 0 1 0 2.81 1.41 1.41 0 0 1 0-2.81zm111.49 0a1.41 1.41 0 0 1-.05 2.81 1.41 1.41 0 0 1 .05-2.81z"/><path class="l" d="M128.73 18a1.13 1.13 0 1 1-1.13 1.1 1.12 1.12 0 0 1 1.13-1.1zm-40.14 1.15a1.12 1.12 0 0 1-1.13 1.1 1.13 1.13 0 1 1 .05-2.25 1.12 1.12 0 0 1 1.08 1.15z"/></svg>